#!OML:ASF H:\MichaelJackson\Top Level 1\Subject 1\Session 1\male.ASF
:FULLY-SPECIFIED
:DEGREES
1146
root 0.781583 15.7444 35.8894 10.4113 -0.154822 1.77251
lowerback -2.52462 0.849563 -0.253017
upperback -2.70969 1.10358 -4.0282
thorax -1.29339 0.519731 -3.99064
lowerneck -5.28653 -1.73928 4.08402
upperneck -2.26994 -2.52181 5.05797
head 0.187487 -1.25556 0.831761
rclavicle -8.94531e-015 6.36111e-015
rhumerus 1.40003 -23.3579 -1.5898
rradius 27.1334
rwrist -8.06634
rhand -36.7655 -49.07
rfingers 7.12502
rthumb -9.8484 -438.82
lclavicle -8.94531e-015 6.36111e-015
lhumerus -55.8874 -43.4035 118.573
lradius 50.5004
lwrist 22.8507
lhand 38.4255 25.5241
lfingers 7.12502
lthumb 61.0776 38.1211
rfemur -18.6726 -4.90322 -8.13059
rtibia 28.654
rfoot -7.74047 -10.2784
rtoes -42.9048
lfemur -5.22212 -21.4509 3.6272
ltibia 14.3169
lfoot -24.4291 11.0607
ltoes -30.5971
1147
root 0.780284 15.7417 35.8739 10.3945 -0.229311 1.78625
lowerback -2.51162 0.858434 -0.310154
upperback -2.6972 1.11613 -4.04383
thorax -1.28773 0.52694 -3.97442
lowerneck -5.29353 -1.7548 4.10227
upperneck -2.29139 -2.54258 5.13809
head 0.183174 -1.26615 0.853163
rclavicle 6.60959e-015 7.95139e-016
rhumerus 1.37375 -23.2893 -1.6566
rradius 27.1176
rwrist -8.01696
rhand -36.7331 -48.9955
rfingers 7.12502
rthumb -9.8171 -438.747
lclavicle 6.60959e-015 7.95139e-016
lhumerus -55.8293 -43.3378 118.488
lradius 50.5424
lwrist 22.8759
lhand 38.4117 25.6073
lfingers 7.12502
lthumb 61.066 38.2177
rfemur -18.7406 -4.94684 -8.14852
rtibia 28.6309
rfoot -7.76931 -10.181
rtoes -42.9418
lfemur -5.23799 -21.4394 3.62625
ltibia 14.3374
lfoot -24.4728 11.0499
ltoes -30.5139
1148
root 0.778997 15.7395 35.8578 10.3834 -0.306094 1.80072
lowerback -2.49984 0.864728 -0.366049
upperback -2.6831 1.12526 -4.06398
thorax -1.27988 0.532393 -3.96362
lowerneck -5.3114 -1.76707 4.12025
upperneck -2.3065 -2.56003 5.22749
head 0.182743 -1.27465 0.877421
rclavicle 4.22417e-015 5.40694e-014
rhumerus 1.34019 -23.2193 -1.73269
rradius 27.0991
rwrist -7.95313
rhand -36.684 -48.9209
rfingers 7.12502
rthumb -9.76977 -438.674
lclavicle 4.22417e-015 5.40694e-014
lhumerus -55.7741 -43.2861 118.403
lradius 50.5861
lwrist 22.9024
lhand 38.4013 25.7264
lfingers 7.12502
lthumb 61.0572 38.3469
rfemur -18.8442 -5.0117 -8.16309
rtibia 28.6484
rfoot -7.79495 -10.0579
rtoes -42.9536
lfemur -5.25674 -21.4665 3.62074
ltibia 14.3569
lfoot -24.4859 11.0993
ltoes -30.4582
1149
root 0.777861 15.7378 35.8411 10.3802 -0.379122 1.81237
lowerback -2.49139 0.867988 -0.415561
upperback -2.66845 1.13035 -4.08462
thorax -1.26976 0.53573 -3.95694
lowerneck -5.33829 -1.777 4.13499
upperneck -2.31576 -2.5751 5.31723
head 0.185648 -1.28161 0.90227
rclavicle 6.80837e-015 -4.13472e-014
rhumerus 1.30561 -23.149 -1.81165
rradius 27.0795
rwrist -7.89509
rhand -36.6472 -48.8867
rfingers 7.12502
rthumb -9.73423 -438.642
lclavicle 6.80837e-015 -4.13472e-014
lhumerus -55.7273 -43.2552 118.334
lradius 50.6261
lwrist 22.9121
lhand 38.4008 25.8601
lfingers 7.12502
lthumb 61.0568 38.481
rfemur -18.9762 -5.0866 -8.17125
rtibia 28.6954
rfoot -7.81837 -9.92417
rtoes -42.9221
lfemur -5.28353 -21.5351 3.61678
ltibia 14.3749
lfoot -24.4682 11.2128
ltoes -30.4347
1150
root 0.776675 15.7363 35.824 10.3811 -0.443699 1.80631
lowerback -2.48176 0.869362 -0.444674
upperback -2.65371 1.13267 -4.1003
thorax -1.26009 0.537384 -3.9567
lowerneck -5.36309 -1.78544 4.14228
upperneck -2.32758 -2.58752 5.40389
head 0.187489 -1.28733 0.92749
rclavicle 2.18663e-015 0
rhumerus 1.27022 -23.0832 -1.88826
rradius 27.0609
rwrist -7.85065
rhand -36.6414 -48.8974
rfingers 7.12502
rthumb -9.72865 -438.653
lclavicle 2.18663e-015 0
lhumerus -55.6982 -43.2551 118.291
lradius 50.6574
lwrist 22.8962
lhand 38.4079 25.9753
lfingers 7.12502
lthumb 61.0628 38.5893
rfemur -19.1212 -5.1432 -8.15675
rtibia 28.7564
rfoot -7.83205 -9.80864
rtoes -42.8507
lfemur -5.31641 -21.6323 3.63308
ltibia 14.391
lfoot -24.4228 11.374
ltoes -30.4461
1151
root 0.775295 15.735 35.8066 10.3827 -0.495525 1.78001
lowerback -2.47073 0.868432 -0.453376
upperback -2.63699 1.13175 -4.10694
thorax -1.24916 0.537195 -3.95864
lowerneck -5.38133 -1.79325 4.14042
upperneck -2.34726 -2.59775 5.47936
head 0.185786 -1.29234 0.95091
rclavicle 1.03368e-014 1.98785e-014
rhumerus 1.23625 -23.0277 -1.95482
rradius 27.0443
rwrist -7.81678
rhand -36.6551 -48.9361
rfingers 7.12502
rthumb -9.74193 -438.691
lclavicle 1.03368e-014 1.98785e-014
lhumerus -55.6866 -43.2905 118.281
lradius 50.6761
lwrist 22.8517
lhand 38.4232 26.0388
lfingers 7.12502
lthumb 61.0757 38.638
rfemur -19.2613 -5.16038 -8.11854
rtibia 28.8135
rfoot -7.8336 -9.73431
rtoes -42.7428
lfemur -5.35375 -21.7507 3.67409
ltibia 14.4054
lfoot -24.3639 11.5675
ltoes -30.4795
1152
root 0.77354 15.7338 35.789 10.3832 -0.527945 1.72873
lowerback -2.45535 0.865087 -0.436181
upperback -2.62111 1.12719 -4.10382
thorax -1.24146 0.534833 -3.96522
lowerneck -5.38716 -1.80212 4.13147
upperneck -2.37228 -2.6079 5.54135
head 0.180298 -1.29774 0.971482
rclavicle -1.13307e-014 1.35174e-014
rhumerus 1.20048 -22.985 -2.0085
rradius 27.0293
rwrist -7.78556
rhand -36.6908 -49.0036
rfingers 7.12502
rthumb -9.77638 -438.757
lclavicle -1.13307e-014 1.35174e-014
lhumerus -55.7002 -43.3606 118.307
lradius 50.6827
lwrist 22.7895
lhand 38.4437 26.047
lfingers 7.12502
lthumb 61.093 38.6264
rfemur -19.3799 -5.1228 -8.05288
rtibia 28.8507
rfoot -7.82153 -9.72182
rtoes -42.61
lfemur -5.3969 -21.872 3.74895
ltibia 14.4167
lfoot -24.3008 11.7645
ltoes -30.5292
1153
root 0.771339 15.7324 35.7716 10.3793 -0.539237 1.66207
lowerback -2.43801 0.859769 -0.401226
upperback -2.60383 1.11982 -4.09482
thorax -1.23338 0.530862 -3.97579
lowerneck -5.38264 -1.81388 4.11648
upperneck -2.40025 -2.62074 5.59034
head 0.172109 -1.3048 0.989091
rclavicle 9.14409e-015 3.49861e-014
rhumerus 1.16435 -22.9785 -2.05054
rradius 27.0083
rwrist -7.71875
rhand -36.7117 -49.0671
rfingers 7.12502
rthumb -9.79651 -438.819
lclavicle 9.14409e-015 3.49861e-014
lhumerus -55.7351 -43.464 118.362
lradius 50.6809
lwrist 22.7308
lhand 38.4691 26.0106
lfingers 7.12502
lthumb 61.1145 38.5652
rfemur -19.462 -5.02608 -7.97246
rtibia 28.8564
rfoot -7.79652 -9.779
rtoes -42.4707
lfemur -5.44238 -21.9903 3.84694
ltibia 14.4235
lfoot -24.2371 11.953
ltoes -30.592
1154
root 0.76862 15.7311 35.7547 10.3706 -0.526954 1.57826
lowerback -2.4201 0.851126 -0.348494
upperback -2.5849 1.1079 -4.07829
thorax -1.22402 0.524433 -3.98863
lowerneck -5.367 -1.82683 4.09593
upperneck -2.431 -2.634 5.62623
head 0.161119 -1.3124 1.00367
rclavicle 7.35503e-015 5.56597e-015
rhumerus 1.13119 -23.0126 -2.08375
rradius 26.9813
rwrist -7.61076
rhand -36.7094 -49.0994
rfingers 7.12502
rthumb -9.79432 -438.852
lclavicle 7.35503e-015 5.56597e-015
lhumerus -55.7808 -43.5868 118.432
lradius 50.6745
lwrist 22.6968
lhand 38.4861 25.955
lfingers 7.12502
lthumb 61.1288 38.4931
rfemur -19.5008 -4.86905 -7.87545
rtibia 28.8251
rfoot -7.75602 -9.91013
rtoes -42.3396
lfemur -5.49134 -22.0945 3.97191
ltibia 14.4259
lfoot -24.1769 12.1177
ltoes -30.6675
